<svg width="166" height="206" viewBox="0 0 166 206" fill="none" xmlns="http://www.w3.org/2000/svg">
<path d="M91.088 112.784L73.52 113.648C72.752 113.648 72.368 112.4 72.368 109.904C72.368 107.408 73.232 103.184 74.96 97.232C76.688 91.28 78.896 86.96 81.584 84.272C84.272 81.584 106.928 80.24 149.552 80.24C160.496 80.24 165.968 80.72 165.968 81.68C165.968 86.096 164.72 92.144 162.224 99.824C159.92 107.312 157.904 112.304 156.176 114.8C155.984 166.448 155.312 193.232 154.16 195.152C153.2 197.072 149.744 199.184 143.792 201.488C137.84 203.984 132.752 205.232 128.528 205.232C124.496 205.232 122.48 204.944 122.48 204.368C122.48 194 122 187.76 121.04 185.648L120.464 185.072L119.6 185.648C108.272 196.976 93.488 202.64 75.248 202.64C50.288 202.64 31.472 194.576 18.8 178.448C6.32 162.32 0.08 141.488 0.08 115.952C0.08 94.448 4.016 74.96 11.888 57.488C16.88 46.544 23.216 37.04 30.896 28.976C38.768 20.912 49.52 14.192 63.152 8.816C76.976 3.44 92.912 0.751999 110.96 0.751999C114.992 0.751999 120.56 1.232 127.664 2.192C134.768 3.152 138.512 3.91999 138.896 4.49599C139.472 5.07199 139.76 7.18399 139.76 10.832C139.76 14.48 139.28 19.472 138.32 25.808C137.36 32.144 136.304 35.888 135.152 37.04C129.2 33.968 119.12 32.432 104.912 32.432C84.56 32.432 68.336 39.248 56.24 52.88C44.144 66.512 38.096 86.48 38.096 112.784C38.096 129.68 41.552 143.216 48.464 153.392C55.376 163.568 65.072 168.656 77.552 168.656C90.032 168.656 100.112 165.584 107.792 159.44C115.664 153.296 119.6 148.112 119.6 143.888V134.672C119.6 122.96 119.024 116.528 117.872 115.376C116.528 113.648 107.6 112.784 91.088 112.784Z" fill="#606060"/>
</svg>
